<?xml version="1.0" encoding="UTF-8"?>
<svg version="1.1" viewBox="0 0 1196 1148" width="1280" height="1280" xmlns="http://www.w3.org/2000/svg">
<path transform="translate(236,487)" d="m0 0h27l12 3 16 8 12 7 13 10 14 12 19 19 8 7 46 46 7 8 14 14 7 8 11 11 2 1v2l4 2 9 8 15 9 10 4 5 1h16l11-4 10-7 10-9 14-12 11-12 10-10 7-8 4-2 2-4 28-28 7-6 4-5 7-6 6-7 8-7 25-25 16-11 12-6 6-2h27l18 5 17 9 12 9 11 9 23 23 7 8 14 15 11 11v2h2l7 8 66 66 7 8 10 12 10 15 6 18 1 5v28l-3 14-4 10-12 19-11 13-11 12-4 5-8 7-31 31-8 10h-2l-2 4-18 18-7 8-19 19-7 8-14 15-7 8-8 8-7 8-17 17-7 8-9 10-12 13-13 14-14 16h-2l-2 4-13 13-8 7-10 8-15 9-17 8-4 1h-45l-20-7-13-7-10-8-10-9-33-33-7-8-17-17-7-8-9-10-7-7v-2l-4-2-7-8-35-35-7-8-61-61-7-8-19-19-7-8-5-4-7-8-17-17-7-8-19-19-7-8-37-37-7-8-9-10-6-6v-2h-2l-7-8-16-16-11-16-8-16-3-10-2-9v-19l3-21 5-12 5-10 7-11 10-13 11-12 13-12 14-10 8-6 14-7 11-4z" fill="#6C50A0"/>
<path transform="translate(628,84)" d="m0 0h24l24 7 17 8 16 11 15 13 12 11 17 17 7 8 24 24 7 8 12 12 7 8 62 62 7 8 9 9 7 8 33 33 7 8 28 28 7 8 14 14 7 8 14 14 7 8 17 16 36 36 13 17 8 14 5 12 1 5v44l-2 8-7 17-10 16-15 15-13 9-15 7-11 4-6 1h-22l-8-2-12-4-11-6-11-9-10-9-11-10-7-8-10-10v-2h-2l-7-8-18-18-7-8-15-16-23-23-7-8-11-11-8-7-20-20-7-8-12-12-7-8-14-14-12-9-14-5-5-1h-10l-12 3-12 5-11 8-12 11-17 17-7 8-10 10-7 8-15 15-7 8-11 11-5 4-6 7-8 7-11 11h-2v2l-11 9-12 11-13 10-16 8-5 2-7 1h-8l-16-4-12-7-12-9-15-13-7-7-8-7-23-23-7-8-23-23-7-8-9-10-11-15-9-17-4-12-1-17 1-23 6-16 8-16 8-11 11-13 11-11 7-8 7-7 8-7 29-29 8-7 78-78 6-7h2l2-4 17-17 7-8 22-22 19-14 14-8 17-6 13-3z" fill="#984289"/>
<path transform="translate(879,283)" d="m0 0 4 2 15 16 30 30 7 8 28 28 7 8 14 14 7 8 14 14 7 8 17 16 36 36 13 17 8 14 5 12 1 5v44l-2 8-7 17-10 16-15 15-13 9-15 7-11 4-6 1h-22l-8-2-12-4-11-6-11-9-10-9-11-10-7-8-10-10v-2h-2l-7-8-18-18-7-8-15-16-23-23-7-8-11-11-8-7-20-20-7-8-12-12-7-8-14-14-12-9-14-5-1-3-4-3-7-1-1-3 5-1-2-2 3-1h4v-2l-2-1 8-1 3 4v2l13-4-2-2 5-4 2 1 3-5h2v-3h-12l-3 1v-2l5-4 2 1v-4l-2 1-9 1-5 2 2-10 4-1v-4-5l9-2v-5l8-2 6-1 2-2 6-1-1-7 5-1 1-5 3-1h4l-2-8 6 1v-8l8-2 2 1v-3l7 1 9 2 6 1 2 1 10 1 5 3 15-1 15 1 7-1h4l2-4 7-3-2-4-3-4v-2l-4-2v-2h-2l-1-3 2-3 4 1z" fill="#6C50A0"/>
<path transform="translate(644,87)" d="m0 0h18l16 5 16 8 15 10 15 13 12 11 17 17 7 8 24 24 7 8 12 12 7 8 21 21v4l2 1v2h-2v2h2l-1 2-7-3-5-4-7-3-2-1v-2h-2l-2 5-6-1-1 5-3 1-6-3-7 1-14-4h-8l-7-1-2 4-4 1-3-2-12-3-5 1-1 4-5-2h-4-4l-9 2-3 3v-6l-3-3-5 2-8 3-7-2 2-3h-10l-3-1-22 1-4 1v2l-7 2-4 4-10 2-3 2-7 2-5 3-5 7-2 4-7 7-5 3-2 5-9 3v2h-2l-2 4-7 5-9 11-7 6-3 1-3-1-2 4-10 5-1 2-6 2-1 1-15 1-1 1h-7l-1 2-6-1-3 1v2h-2v2l-9 5-4 2v2l-9 5 1 8-7 8-3 5-5 5-5 1v2l-3 1-1-2-5 5-1-4-2-1v2l-6 3-8 5v-3l-10 8-8 4h-4v2l-7 3-2 4-14 7-1 6-4 2h-4l-4 7-4 2 2 4-1 5-2 2h-3v2l-4 1-2-5 1-5-1-1-2 2-4-3-5-5-1-7-1-3h-2l-2-6v-7l2-7v-5l2-10h2l1-5 2-6 2-5h3v-2h2v-2h2l1-4 5-6 1-4 2-1v-2h2v-3l5-5 4-5 6-5 4-5 1-2 5-3 7-8 5-2v-2h2l2-4 6-5 2-4h3v-3l4-2 1-2h2l1-4h3v-2h2l2-5 1-2h4l1-4 3-4 4-2 5-6h2l1-4h3l1-4 3-2 1-2h3l2-4h3v-2h2v-2l4-2 1-2h2v-3l8-6h2l1-5 7-6h2v-4l4-2 4-5 4-1 1-4 5-5h2l2-4 5-7 8-8h2l1-4 3-1v-2l4-1-1-3 6-5 5-6 5-5 3-2 1-3 4-3h2l1-4 5-2 1-3 6-4h2l1-3 4-2 3-3 3-1 4-4 12-6 18-7 15-3z" fill="#AB4287"/>
<path transform="translate(612,89)" d="m0 0h4l-1 3h-5l-3 2h-3l-2 4-10 7-3 1v2l-10 6-5 2v2h-2v2h-2v2l-5 3-4 4h-2l-1 3-6 5-5 5-5 6-5 4h-2l-2 4-9 10-5 6-13 13h-2l-2 4-7 8-6 5-6 7-6 5-5 6-4 4-5 3-7 8-5 2-2 4-1 3h-3l-2 4h-2l-1 3h-3l-1 4-7 6-1 2h-2l-2 4-7 6-1 3-3 1-3 4h-2l-1 3-6 5-5 6-8 7-4 2-2 4-3 1v2l-5 4h-2l-2 4h-2l-2 5h-2l-2 4-6 8-3 3-6 9-4 7h-2l-1 4-3 8-2 4-3 24v18l2 15 2 6-1 2 3 1 1 6h2l1 4 3 1 5 10 6 5 5 3 7 8 9 9 7 6v2l4 2v-2l-7-6-5-6-3-3h3l5 5 9 2 8 2 10-1 3-5v-2h2l-1-6v-8l3-5 4-2 2-5 9-6 4-3h2l1-2-1 6h-2v2h-3l-3 6h-2v8l-2 6 4 1 2 1v2h7l2 3 9 3 4 2 10 2 8 3-1 2-11 1-3 2v6l4 1 7 3 1 5h2l1 6-6 5-2 1 7 4 5-6 12-5 2-1 1-5 7-3h2v-2l5-4 3-5 8-8 5-4h2v-3l3-3 3-7 5-4h4l1-4 3 1 8-4 3 2h7v-2h2v-2l4-1 1 4h2l1 2 4-2 3-5 3-1 2-5v-3h3l2-2 2 4 6 1 1-6 5 1h5l5-3 7-2 7-5 8-2v-2l3-1v2h-2l1 2 3-3h2v-2l3 1h-2l-2 4 3-1 8-3 6 1v3l4-1v-2l5-2 1-3-1-3 2-3 5-1 1-4 4-2 5-2h3l1-3h3v-3l11-1h1v5l6 2-15 6-12 8-13 12-17 17-7 8-10 10-7 8-15 15-7 8-11 11-5 4-6 7-8 7-11 11h-2v2l-11 9-12 11-13 10-16 8-5 2-7 1h-8l-16-4-12-7-12-9-15-13-7-7-8-7-23-23-7-8-23-23-7-8-9-10-11-15-9-17-4-12-1-17 1-23 6-16 8-16 8-11 11-13 11-11 7-8 7-7 8-7 29-29 8-7 78-78 6-7h2l2-4 17-17 7-8 22-22 19-14 14-8 8-3z" fill="#6C50A0"/>
<path transform="translate(685,677)" d="m0 0 5 2v2h-2l4 9v2h-4l-1 5h2v-2l3 1-1 3-2-1 1 2v7l-3 6-1 6-6 1 1 5 3 3v-2h2l3 5v8l2 6 3 2-1 8-4 1-3 5-5 6-1-3-5 3-1 7-4 1-1-3-7 8-3 1h-3l-3 1v2h-2l-2 5-7 4-5 6-5 4-5 2-4 5-2-2-6 3-6 7-10 3-5 2-3 7-6-1-7-1-2 6-3 3-6 3-5 1-2 5-4 3h-2l-2 4h-2l-2 4-2 2h-3l-1 5-5 9-4 5-4 1-4-5-1-5 1-3-6-1 1-3h2l-1-5-6 1-11-1h-2v2l-3 1-3-1-1 2-8 5-3 1v2h-2v2l-4 2-2 4h-2v2l-5 2-1 2-10 7-12 3-2-8-11 3-4 1-2-5-7 2 1 8 5-1v5l-3 8 2 4-4 2v11l3 1 5 11v3h2l3 5h3v2l3 1v3h2l1 3-4-1v4l-8-6-4-4v-2l-4-2-6-4v-2l-4-2-7-8-13-13v-2h-2l-4-4v-2h-2v-2h-2l-10-10-4-5 4 2 4 3 5 3 2-1v2l3 1 1 1 1-3 5 1 4-1 2-6 2-4 3-1 3-4 4 1-1-5 1-3h2v-2h2v-9l3-2v-7l2-3 5-2 3-4h7l5 2v-2l5-2v-3l9-3 3-3 5-3 2-4 4-1 2-1 1-7 2-6h2l1-5 7-2 2 1v-2l11-4 7-6h3l1-2h6l12-6 5-3 13-2 5-3 8-4h8l2-7 4-3 7-1 2 1 1-3h6l2 1v-3l-2-1 6-1 3-1v-5l5-1v-2l7-4 4-2h3l1-3 12-5 4-4h2l1-5 7-3 1-5 9-3 4-6 5-2 3-7 1-4h2l1-3 10-4 3-8h4z" fill="#6456A5"/>
<path transform="translate(644,87)" d="m0 0h18l16 5 16 8 15 10 15 13 5 5h-2l2 10h2l3 6 2 12 1 3-2 1-5 1-5 3-6-3v2h-9l-6 1h-11l-3-1h-8l-4-1-5 3h-14l-4-1-1 1h-7l-3 3-11 3-4 1-10 1-5 3-6 2-8 2-3 5-12 2-5 2-1 4-8 3-7 8-6 3-5 7-7 2-8 6-6 3-7 6-3 3-8 3-1 2-13 4-5 3-4 2-2 4h-5v5l-2 1-2-1v2l-5 2-2 3-5-1-2-3v3l-5 1-2-4-3-1v-4l6-3 1-2h2l1-6 3-6 5-5h2l2-5h2l1-3h2v-6-3h2l1-5 7-6h2v-4l4-2 4-5 4-1 1-4 5-5h2l2-4 5-7 8-8h2l1-4 3-1v-2l4-1-1-3 6-5 5-6 5-5 3-2 1-3 4-3h2l1-4 5-2 1-3 6-4h2l1-3 4-2 3-3 3-1 4-4 12-6 18-7 15-3z" fill="#BB3E83"/>
<path transform="translate(712,984)" d="m0 0 7 2 4 2v2l4 1-5 4-1 2h-2l-1 4-6 5-2 4-3 5-2 7 4-3h2l3-4 5-4h2l-2 4-18 20-6 7h-2l-2 4-13 13-8 7-10 8-15 9-17 8-4 1h-45l-7-3 1-4-7-2-3-6-7-3-4-4v-2l-5-2v-2l-2-1-5-8 1-2 2 2 5-1 4-2 3-7 7-3 3-7 7-3 5-3 16-4 11-4 7-2 4-3h8l11-6 10-1 6-5h2l1-2 10-1 3 2 10-1 7 1 9-3 2-4 3-1 1-3 5-3 3-3z" fill="#4C68B1"/>
<path transform="translate(220,493)" d="m0 0h4l3 3v3l-7 4-2 2-10 6-8 6-11 8-4 5-6 4-5 6-5 5h-2v3l-5 3-4 6-4 4-3 6h-2l-1 5-3 5v2h-2l-1 6-3 12-2 15v14l3 16 1 6 2 5 3 1 2 5 4 4 8 11 1 3h2l7 8 1 3 3 1v2l5 2 4 8v3l3-1 4 5 5 5 6 5v2l4 2 5 6 5 5 6 5v2l4 2 16 16v2l4 2 5 6 5 5 5 4 4 5v2l3 1 5 5 7 6 5 6 2 1v3l4 2 5 5 6 7v2l3 1 3 3 6 5 1 3 6 5 4 6 4 3v3l4 2 5 5v2l4 2 4 5v2h3l1 3 8 8 5 3 15 15v2l4 2 16 16v3l4 1 4 4 3 5 12 11 14 15 1 3 3 1 15 15 1 6 4 1 4 5v2h2v2l3 1v2l5 2 8 9 4 5 8 7 20 20v2l4 2 4 4v2l3 1 8 11v2h2v2l-6-2-34-34-7-8-17-17-7-8-9-10-7-7v-2l-4-2-7-8-35-35-7-8-61-61-7-8-19-19-7-8-5-4-7-8-17-17-7-8-19-19-7-8-37-37-7-8-9-10-6-6v-2h-2l-7-8-16-16-11-16-8-16-3-10-2-9v-19l3-21 5-12 5-10 7-11 10-13 11-12 13-12 14-10 6-5 9-1 6-2z" fill="#503661"/>
<path transform="translate(612,89)" d="m0 0h4l-1 3h-5l-3 2h-3l-2 4-10 7-3 1v2l-10 6-5 2v2h-2v2h-2v2l-5 3-4 4h-2l-1 3-6 5-5 5-5 6-5 4h-2l-2 4-9 10-5 6-13 13h-2l-2 4-7 8-6 5-6 7-6 5-5 6-4 4-5 3-7 8-5 2-2 4-1 3h-3l-2 4h-2l-1 3h-3l-1 4-7 6-1 2h-2l-2 4-7 6-1 3-3 1-3 4h-2l-1 3-6 5-5 6-8 7-4 2-2 4-3 1v2l-5 4h-2l-2 4h-2l-2 5h-2l-2 4-6 8-3 3-6 9-4 7h-2l-1 4-3 8-2 4-3 24v18l2 15 2 6-1 2 3 1 1 6h2l1 4 3 1 5 10 8 7v3l4 2v2h2v5l-7-6-9-10-11-15-9-17-4-12-1-17 1-23 6-16 8-16 8-11 11-13 11-11 7-8 7-7 8-7 29-29 8-7 78-78 6-7h2l2-4 17-17 7-8 22-22 19-14 14-8 8-3z" fill="#702E58"/>
<path transform="translate(628,84)" d="m0 0h24l6 2v1l-14 1-12 3-9 2-16 6-12 6-3 1-1 3-5 3-2 2-3 1-3 3-6 4-4 4h-2l-1 4-4 3h-2l-1 4-18 18v2l-4 1v2l-3 2-1 3-3 3h-3l-2 5-4 4-5 7h-2l-2 4-3 2-1 3-4 2 1 2h-4l-1 3-4 1v4l-6 5-2 2-2 1v3l-6 4-4 2v3h-2l-1 3-4 1v2h-2v2l-4 2-1 2-3 2-1 2h-3l-1 4-3 1-1 3h-2l-2 5-8 5v2l-2 1-1 3h-4l-2 5-1 2h-2v2h-3l-1 4h-2l-2 4h-3v3l-3 1-2 4-7 6-1 2h-2v2l-8 6-6 7h-3l-2 5-2 3-4 1-2 4-5 5-3 4h-2v3h-2l1 3h-3v5l-3 3h-2l-2 6h-2v2h-2v2h-3l-2 10-3 6h-2l1 3-1 5v2h-2l1 6-2 6v9l2 6v13h-3l-2-12v-18l3-24 1-5 2-3 4-8h2l1-4 10-15h2l2-4 6-8h2l2-5 6-5h2l1-3h2v-2l8-7 5-5 4-2 2-4h2l1-3 6-5 6-7h3l1-4h2l2-4 3-1 1-3 3-1 2-4 4-4h2l1-4 3-1 5-6h3l1-4 4-4 8-7 4-5h3l2-4h2l2-4h2l1-3 7-6 2-3h2l2-4h2l1-3 5-5h2l2-4 5-5h2l2-5 5-4 5-6h2l2-4 3-4h2l2-4 5-5 5-4 7-8h2l2-4h2l1-3 5-4 7-6h2v-2h2v-2h2v-2l13-8h2v-2l8-6 5-3 2-3 6-3h5l1-2-7 2h-5l3-2 15-3z" fill="#9A3A7C"/>
<path transform="translate(644,87)" d="m0 0h18l11 3 1 4-1 2h-5v-3h-2v3h-5l-2 2 4 2-2 4h-3l-1 1-3-1-1 2-13 4-10 2-5-1-1 1-14 1-11 2-2 3h-2v2l-3 1v-2l-2 1v2l-6 1v2l-5 1v2l-6 3-5 6-5 1v3l-6 8-6 1v4h-2v3l-6 1-2 6-4 2-1 3-4 5-2 2-1 2h-3l-2 4-3 4h-3v3l-5 1v3l-6 5h-2l-1 4h-2l-2 4-7 8h-4v3l-6 5 1-4-1-2h2l1-5 7-6h2v-4l4-2 4-5 4-1 1-4 5-5h2l2-4 5-7 8-8h2l1-4 3-1v-2l4-1-1-3 6-5 5-6 5-5 3-2 1-3 4-3h2l1-4 5-2 1-3 6-4h2l1-3 4-2 3-3 3-1 4-4 12-6 18-7 15-3z" fill="#B83877"/>
<path transform="translate(220,493)" d="m0 0h4l3 3v3l-7 4-2 2-10 6-8 6-11 8-4 5-6 4-5 6-5 5h-2v3l-5 3-4 6-4 4-3 6h-2l-1 5-3 5v2h-2l-1 6-3 12-2 15v14l3 16 1 6 8 15 5 7 4 4v2h2v4h2l1 4h3l4 6 1 2-4-2-14-14-11-16-8-16-3-10-2-9v-19l3-21 5-12 5-10 7-11 10-13 11-12 13-12 14-10 6-5 9-1 6-2z" fill="#503559"/>
<path transform="translate(756,420)" d="m0 0 5 1 10 9 5 4v2l4 2v2l4 2 14 16v2h2v2l3 1-1 2 5 1 4 3 3 7 4 1 1 5 3-1 10 10v2l3 1 1 3 4 2v2l4 1 2 6 4 2v2l4 2v2l4 2 2 5h2v2l4 2 5 5 3 2v2l3 1v3l4 2v2l4 1 7 8 6 5 4 4v2l4 2 4 4v2l3 1 7 8 6 7 8 7 3 3 1 3 2 1v3l4 1 3 3v2l5 2 3 2v2l5 2 5 8-5 1-11-9-10-9-11-10-7-8-10-10v-2h-2l-7-8-18-18-7-8-15-16-23-23-7-8-11-11-8-7-20-20-7-8-12-12-7-8-11-11z" fill="#614785"/>
<path transform="translate(692,499)" d="m0 0 9 1-1 2-12 6-11 8-6 4-4 5-6 4-1 2h-2l-1 3-8 7-9 10-1 2h-2l-2 4-6 5-6 7h-2l-2 4h-2l-2 4-12 12h-2l-2 4-12 12h-2l-2 4-8 8h-2l-2 4h-2l-2 4h-2l-2 4-8 8h-2l-2 4-5 4h-2l-2 4-11 9-15 9-7 1 1-3 12-7 13-12 11-9 14-15 9-9 7-8 4-2 2-4 28-28 7-6 4-5 7-6 6-7 8-7 25-25 16-11z" fill="#4A3054"/>
<path transform="translate(144,653)" d="m0 0 2 1 2 5 4 4 8 11 1 3h2l7 8 1 3 3 1v2l5 2 4 8v3l3-1 4 5 5 5 6 5v2l4 2 5 6 5 5 6 5v2l4 2 16 16v2l4 2 5 6 5 5 5 4 4 5v2l3 1 5 5 7 6 5 6 2 1v3l4 2 5 5 6 7v2l3 1 3 3 6 5 1 3 6 5 4 6 4 3v3l4 2 5 5v2l-4-2-4-4v3l-7-6-16-16-7-8-5-4-7-8-17-17-7-8-19-19-7-8-37-37-7-8-9-10-6-6v-2h-2l-6-8-4-6v-2h-3l-1-4h-2v-4h-2l-2-5-3-1-9-14z" fill="#5E4381"/>
<path transform="translate(701,496)" d="m0 0h25l1 2-8 2-5 3-15 4-3 3-10 5-3 3-8 5-1 2-3 1-1 3-4 4-5 1-1 3h-2l-2 4-4 1v3l-6 5-3 4h-2l-2 4h-2l-2 4-4 4h-2l-2 4-2 3h-2l-2 4-4 4h-2v2h-2v2h-2v2h-2l-2 4-4 2-2 4h-2l-1 4-5 2v2h-2l-2 4h-2l-2 4-4 2v2h-2v2h-2v2h-2v2h-2v2l-4 4h-2v2h-2v2l-3 2-1 3h-4l-1 4-3 3h-2l-2 4-7 4-5 5-5 1v2l-3 3-17 6-5 1h-22l-2-3 20-1 7-1 2 1 5-2 16-9 10-9 4-4 5-4 12-12 5-6 8-7 39-39 5-6 6-5 6-7 4-4h2l2-4 12-13 5-5h2l1-3 6-4 6-7 8-5 8-6 11-5-5-2 3-2z" fill="#593E7E"/>
<path transform="translate(236,487)" d="m0 0h27l12 3 14 7-1 2-10 2h-3l-2 5-8 1-1 2-11 2h-6-3l-3 2-15 2-3 1-4-1h-3v3l-6 2v2l-8 2-4 5-6 5h-2l-1 3-8 7-3 2v-4l4-2v-2h3l1-4 4-5 4-2 4-6 9-5 10-7 5-3 1-1h6l1-2 9-5v2h2v-2l5-3 7-2 1-1-9-2v-2h-9z" fill="#99478D"/>
<path transform="translate(424,948)" d="m0 0 7 6 4 4v2l3 1 15 15 1 6 4 1 4 5v2h2v2l3 1v2l5 2 8 9 4 5 8 7 20 20v2l4 2 4 4v2l3 1 8 11v2h2v2l-6-2-34-34-7-8-17-17-7-8-9-10-7-7v-2l-4-2-7-8-5-6v-4l-3-1-3-4z" fill="#584066"/>
<path transform="translate(446,236)" d="m0 0h2l-1 3-6 5-5 6-6 4-1 3-5 4-17 17h-2l-2 4-8 8-5 4-5 5-6 7-8 7-7 6-7 8-8 9-5 5-3 7-5 9-4 5 1-7 6-12 11-14 11-12 7-7 7-8 7-7 8-7 29-29 8-7 15-15z" fill="#51375A"/>
<path transform="translate(153,558)" d="m0 0h2l-2 6-2 3h-2l-1 5-3 5v2h-2l-1 6-3 12-2 15v14l3 16 1 6 8 15 5 7 4 4v2h2v4h2l1 4h3l4 6 1 2-4-2-14-14-11-16-8-16-2-5 1-7 1-4v-23l2-12 4-10 2-7 4-8h2l-1-3 5-5z" fill="#73335D"/>
<path transform="translate(220,493)" d="m0 0h4l3 3v3l-7 4-2 2-10 6-8 6-11 8-4 5-6 4-5 6-5 5h-2v3l-5 3-4 6-3 1 2-5 5-6h2l2-4 2-3h2v-2h2l1-3 8-8h2v-2l4-1v-2h2l2-4 4-3 3-7 1-5 4-3 9-1 6-2z" fill="#6F2E59"/>
<path transform="translate(628,84)" d="m0 0h24l6 2v1l-14 1-12 3-9 2-16 6-12 6h-3l5-5 5-3 2-3 6-3h5l1-2-7 2h-5l3-2 15-3z" fill="#9A4280"/>
<path transform="translate(193,716)" d="m0 0 4 1 1 3 4 2 8 8v2l4 2 8 8v2l4 1v3l3 1 5 5v2l4 2v2l4 2v2l4 2v2l3 1 3 4v2l-6-2-11-12-35-35-7-8z" fill="#523960"/>
<path transform="translate(484,1012)" d="m0 0 4 2 24 24v2l4 2 4 4v2l3 1 8 11v2h2v2l-6-2-27-27 2-1 2 1-3-4-1-2-5-3-3-5-6-5z" fill="#5B4080"/>
<path transform="translate(570,109)" d="m0 0h2l-2 6-8 5-8 10-4 2-5 6-6 5-6 7-7 6-4 6-6 4-4 5-2-1 6-8 16-16 7-8 22-22z" fill="#52385F"/>
<path transform="translate(424,948)" d="m0 0 7 6 4 4v2l3 1 15 15 1 6 4 1 4 5v2l-5-1-11-11v-2l-4-2-7-8-5-6v-4l-3-1-3-4z" fill="#5D4280"/>
<path transform="translate(485,197)" d="m0 0 2 1-4 5-5 3-4 5-5 4-1 3-5 1v2l-2 2-6 7-7 4v-3l33-33z" fill="#533462"/>
<path transform="translate(425,537)" d="m0 0 4 2 3 2v3l4 1 6 5v2l4 2 6 7-3 1-11-10-8-7-6-7z" fill="#694F8B"/>
<path transform="translate(147,665)" d="m0 0 5 2 6 7v2h2v4h2l1 4h3l4 6 1 2-4-2-14-14-6-8z" fill="#613F65"/>
<path transform="translate(512,667)" d="m0 0m-5-1 3 1 2 1v2l-5 1h-22l-2-3 20-1z" fill="#5F4584"/>
<path transform="translate(628,84)" d="m0 0h24l6 2v1h-36l2-2z" fill="#7E66AC"/>
<path transform="translate(153,558)" d="m0 0h2l-2 6-2 3h-2l-1 5-3 5v2h-2l-1 6-1 3h-2l3-12 4-8h2l-1-3 5-5z" fill="#702C56"/>
<path transform="translate(326,373)" d="m0 0 1 4 2 1h-2v14l-2 11-2-1 1-25z" fill="#503559"/>
<path transform="translate(882,634)" d="m0 0h2v2h2v2h2v2l4 2 1 4h-4v-2l-7-2-2-5z" fill="#6456A5"/>
<path transform="translate(340,342)" d="m0 0 3 1-2 5-5 9-4 5 1-7 6-12z" fill="#4D2F57"/>
<path transform="translate(364,476)" d="m0 0 4 2 4 4 5 6 4 4-1 3-16-16z" fill="#87537B"/>
<path transform="translate(485,197)" d="m0 0 2 1-4 5-5 3-4 5-5 4-1 3-5 1 6-7 14-14z" fill="#452B4D"/>
<path transform="translate(219,492)" d="m0 0 3 1h-2l-1 4-3 2-4 1h-7l5-4z" fill="#8067AA"/>
<path transform="translate(757,970)" d="m0 0h2l-2 4-7 7-5 6h-3l2-4 3-1 2-4 4-4h2z" fill="#5C70B4"/>
<path transform="translate(144,653)" d="m0 0 2 1 2 5 4 4 8 11v3l-4-4v-2l-3-1-9-14z" fill="#5A3F7F"/>
<path transform="translate(570,441)" d="m0 0 2 1 2 8-1 2-5-1-1-6 1-3z" fill="#6C50A0"/>
<path transform="translate(573,1085)" d="m0 0 1 2 11 2 4 3h-10l-7-3z" fill="#846DAF"/>
<path transform="translate(335,391)" d="m0 0 2 3-1 16-3-4v-9z" fill="#984289"/>
<path transform="translate(345,448)" d="m0 0 6 5 4 6v2h2l-1 3-7-6-3-6z" fill="#6C50A0"/>
<path transform="translate(633,430)" d="m0 0 2 1-9 9-5 3h-2v2l-2-1 1-2h2v-2l6-4 4-2v-2z" fill="#984289"/>
<path transform="translate(334,427)" d="m0 0 3 3 4 10 2 2 1 5h-2l-1-4h-2l-2-6-2-1v-7l-2-1z" fill="#6C50A0"/>
<path transform="translate(403,517)" d="m0 0 4 1 4 6 6 5 1 3-4-2-11-11z" fill="#614489"/>
<path transform="translate(158,676)" d="m0 0h2v4h2l1 4h3l4 6 1 2-4-2-9-9z" fill="#673568"/>
<path transform="translate(425,537)" d="m0 0 4 2 3 2 3 5v2l-4-2-7-7z" fill="#67376D"/>
<path transform="translate(344,359)" d="m0 0 4 1-3 9-3 2v-9z" fill="#984289"/>
<path transform="translate(269,515)" d="m0 0h6l3 2-1 3-7-1z" fill="#984289"/>
<path transform="translate(467,995)" d="m0 0 5 2 8 9v2h-2l-6-7-5-5z" fill="#5A3F7F"/>
<path transform="translate(650,84)" d="m0 0 8 2v1h-22v-1l13-1z" fill="#C57EAD"/>
<path transform="translate(413,936)" d="m0 0 7 6 4 4v2l-4-1v-3l-3-1-4-5z" fill="#5A3F7F"/>
<path transform="translate(140,640)" d="m0 0 2 2v6h2v5l-4-5-1-6z" fill="#5A3F7F"/>
<path transform="translate(457,264)" d="m0 0h2l-1 5-4 1v-2l-3-1 1-2z" fill="#BB3E83"/>
<path transform="translate(708,387)" d="m0 0 5 1-4 4-7-1 3-3z" fill="#6C50A0"/>
</svg>
